<?xml version="1.0" encoding="utf-8" ?><svg xmlns="http://www.w3.org/2000/svg" xmlns:xlink="http://www.w3.org/1999/xlink" width="3712" height="1669" viewBox="0 0 3712 1669"><clipPath id="cl_3"><rect width="3712" height="1669"/></clipPath><g clip-path="url(#cl_3)"><path transform="translate(-180 -321)" d="M332.621 414.296L3769.96 414.336L3769.93 1453.95L3769.51 1736.38C3769.51 1787.46 3771.86 1838.92 3769.02 1889.97L2078.78 1890.4L2048.15 1890.5L2048.36 1847.02L3727.21 1847.67C3731.16 1790.11 3727.76 1731.41 3727.73 1673.72L3727.51 1336.23L3727.35 456.517L332.306 456.207C331.742 442.289 331.417 428.203 332.621 414.296Z"/><path transform="translate(-180 -321)" d="M774.53 579.407C808.066 579.203 841.605 579.269 875.137 579.604C877.039 616.522 874.647 653.825 874.454 690.779L874.863 883.125L875.068 1112.33C875.052 1151.86 876.748 1191.68 874.688 1231.18C874.522 1234.35 874.982 1236.94 871.448 1239.58L765.852 1239.81C694.2 1127.92 621.455 1016.25 547.621 904.811L476.974 795.27C464.353 775.796 453.212 754.16 436.161 735.804C434.095 787.798 435.99 840.06 435.98 892.085L435.678 1239.04C402.246 1239.9 368.447 1239.39 334.968 1239.42C332.531 1192.66 334.394 1145.6 334.336 1098.82L334.006 814.043L333.714 653.026C333.669 629.907 328.968 602.086 334.409 579.673C372.742 579.345 411.195 579.655 449.539 579.652C472.045 617.5 498.356 654.562 522.705 692.032L676.08 925.694L743.516 1029.22C753.701 1044.71 762.033 1061.52 775.163 1076.24L774.53 579.407Z"/><path transform="translate(-180 -321)" d="M3028.39 568.48C3032.11 568.26 3035.84 568.105 3039.58 568.017C3100.1 566.619 3157.04 576.779 3201.67 600.232C3285.15 644.104 3302.78 714.365 3306.41 775.407C3270.92 775.847 3235.32 775.612 3199.82 775.696C3194.74 742.096 3189.24 706.075 3147.18 679.756C3122.98 664.363 3088.63 655.214 3052.13 654.437C3017.66 653.725 2981.6 661.436 2956.68 674.85C2921.53 693.777 2909.9 723.323 2909.47 749.755C2909.15 769.442 2915.16 790.575 2935.73 806.991C2990.78 850.93 3165.84 864.485 3247.21 911.334C3312.26 948.785 3327.91 1003.63 3326.25 1054C3324.33 1112.2 3303.74 1175.61 3225.53 1217.5C3173.19 1245.53 3111.67 1253.72 3041.4 1252.93C2981.58 1248.83 2934.1 1239.2 2889.31 1215.69C2802.84 1170.31 2786.19 1097.78 2782.75 1034.81L2890.57 1034.85C2891.15 1043.5 2891.8 1052.13 2893.52 1060.74C2899.8 1092.17 2915.7 1127.71 2962.15 1148.15C2997.24 1163.59 3042.72 1168.63 3086.35 1165.44C3124.33 1162.65 3157.34 1152.77 3180.77 1135.56C3214.96 1110.46 3223.13 1073.46 3215.77 1042.87C3211.82 1026.45 3201.92 1011.4 3181.88 999.028C3128.57 966.115 2979.75 946.862 2902.82 913.203C2839.88 885.668 2811.76 843.72 2802.39 800.218C2789.4 739.85 2802.56 666.829 2871.41 617.956C2912.16 589.028 2963.22 572.678 3028.39 568.48Z"/><path transform="translate(-180 -321)" d="M994.219 579.789C1148.22 577.841 1302.92 579.599 1456.99 579.92C1456.67 610.128 1456.69 640.337 1457.04 670.545L1099.12 671.123L1099.14 855.552L1427.2 855.637C1430.1 885.179 1427.52 915.612 1427.27 945.248L1099.45 945.228L1099.54 1060.31L1099.39 1147.71L1466.9 1147.76L1467.02 1239.61L991.562 1239.98C991.348 1179 987.267 588.907 994.219 579.789Z"/><path transform="translate(-180 -321)" d="M2592.89 579.405L2699.23 579.462C2702.13 609.86 2699.86 640.975 2699.94 671.453L2700.02 907.932C2699.95 960.34 2702.85 1013.15 2694.26 1065.37C2684.6 1124.04 2657.13 1188.06 2572.66 1227.17C2525.93 1248.81 2467.45 1256.51 2407.72 1253.23C2345.53 1249.81 2292.49 1234.25 2253.27 1206.85C2209.85 1176.52 2187.73 1138.66 2175.93 1100.79C2158.58 1045.05 2161.35 988.682 2161.39 932.328L2161.48 757.298L2161.04 642.802C2160.9 621.989 2158.1 600.133 2161.88 579.487L2270.55 579.423C2272.12 592.827 2271.11 606.655 2271.15 620.104L2271.13 696.195L2271.07 926.104C2271.09 971.916 2265.68 1020.23 2278.71 1065.52C2285.99 1090.82 2299.86 1118.43 2331.35 1137.78C2355.96 1153.02 2390.6 1161.93 2427.19 1162.43C2464.3 1163.1 2498.7 1157.54 2525.85 1142.8C2556.37 1126.22 2572.21 1102.24 2580.24 1079.28C2599.54 1024.09 2592.34 954.034 2592.41 897.21C2592.55 791.355 2589.79 685.233 2592.89 579.405Z"/><path transform="translate(-180 -321)" d="M1521.11 579.244L1649.64 579.79C1669.25 600.753 1689.55 636.997 1705.13 660.373C1741.2 713.309 1775.95 766.525 1809.37 820.007C1829.28 796.416 1843.96 770.174 1860.08 745.621C1896.35 690.397 1930.53 634.627 1968.21 579.711C2010.17 578.384 2053.04 579.406 2095.09 579.519C2075.73 612.687 2050.25 645.233 2027.85 677.821C1977.05 751.748 1924.94 825.519 1875.78 899.787C1959.36 1011.85 2027.6 1127.71 2112.92 1239.37C2098.33 1239.71 2083.61 1239.57 2069 1239.63L1975.34 1239.65C1919.66 1154.64 1861.72 1069.8 1809.17 984.176C1755.97 1069.77 1693.97 1153.64 1642.35 1239.55C1597.57 1240.03 1552.18 1240.22 1507.43 1239.31L1742.27 900.704C1692.75 831.099 1645.97 760.779 1597.48 690.93L1549.74 623.24C1539.59 608.854 1528.19 594.195 1521.11 579.244Z"/><path transform="translate(-180 -321)" d="M1416.55 1478.34C1449.14 1478.37 1503.43 1472.85 1528.47 1486.48C1553.17 1499.93 1558.97 1525.14 1559.66 1543.55C1560.47 1565.17 1555.11 1596.36 1526.04 1612.45C1505.41 1623.88 1474.09 1621.16 1447.64 1620.82L1447.64 1656.56L1447.27 1719.01L1418.23 1718.86C1414.79 1688.28 1416.84 1656.92 1416.69 1626.25C1416.45 1576.96 1415.57 1527.63 1416.55 1478.34ZM1446.91 1595.17C1466.45 1595.35 1490.02 1597.08 1508.12 1592.26C1527.94 1581.19 1528.81 1562.83 1528.8 1547.99C1528.79 1535.27 1527.63 1519.17 1510.82 1509.57C1501.51 1504.25 1490.73 1503.96 1478.05 1504.13C1472.03 1504.21 1466 1504.49 1460 1504.78C1453.9 1505.08 1451.96 1504.71 1447.37 1507.12C1444.23 1520.39 1446.35 1534.64 1446.43 1548.05C1446.53 1563.63 1445.25 1579.63 1446.91 1595.17Z"/><path transform="translate(-180 -321)" d="M1621.4 1478.74L1650.38 1478.81C1656.7 1505.98 1667.06 1533.17 1675.14 1560.23L1722.11 1719.37L1690.46 1719.46C1685.63 1702.5 1680.73 1670.69 1670.18 1655.97C1664.71 1653.9 1658.79 1654.44 1652.5 1654.52L1596.55 1654.74C1589.4 1676.14 1582.78 1697.6 1576.7 1719.1C1568.37 1719.27 1558.44 1720.08 1550.95 1717.81C1547.1 1708.35 1612.88 1493.14 1621.4 1478.74ZM1601.05 1630.12C1622.55 1630.23 1644.25 1629.99 1665.7 1630.72C1660.09 1604.48 1653.44 1577.69 1644.44 1551.76C1643.29 1539.88 1638.89 1527.46 1633.76 1515.94C1632.04 1525.87 1628.66 1535.75 1625.78 1545.59C1618.32 1573.82 1607.13 1601.8 1601.05 1630.12Z"/><path fill="#FDFDFC" fill-opacity="0.027450981" transform="translate(-180 -321)" d="M1633.76 1515.94C1638.89 1527.46 1643.29 1539.88 1644.44 1551.76C1642.8 1549.26 1641.4 1547.47 1638.38 1545.41C1633.23 1544.49 1630.99 1545.01 1625.78 1545.59C1628.66 1535.75 1632.04 1525.87 1633.76 1515.94Z"/><path transform="translate(-180 -321)" d="M832.384 1478.48L861.841 1478.64C877.324 1515.32 898.818 1551.64 916.837 1588.02C927.316 1609.17 941.094 1647.19 956.638 1665.38L958.752 1665.78C963.501 1654.32 959.334 1622.34 959.177 1608.86L958.357 1478.74L984.52 1478.79L984.689 1712.53C984.785 1714.9 984.553 1716.05 982.514 1718.14C974.813 1720.29 964.554 1719.35 956.121 1719.17C947.068 1705.65 941.202 1690.81 934.038 1676.9C921.172 1652.57 908.532 1628.2 896.117 1603.79C884.824 1580.97 874.909 1557.83 860.539 1535.54C858.537 1558.26 859.678 1581.21 859.746 1603.97L860.155 1718.94C852.388 1719.19 840.723 1720.19 834.145 1717.6C832.195 1703.48 833.188 1689.07 833.162 1674.89L832.842 1606.6C832.603 1564.15 828.804 1520.84 832.384 1478.48Z"/><path transform="translate(-180 -321)" d="M1300.42 1474.03C1303.61 1473.71 1306.69 1473.5 1309.93 1473.42C1325.9 1473.03 1340.08 1475.38 1351.67 1481.76C1378.65 1496.63 1379.62 1523.64 1380.55 1543.46C1371.39 1543.75 1362.15 1543.65 1352.96 1543.68C1352.26 1529.14 1352.08 1514 1333.13 1502.72C1327.7 1499.5 1321.59 1497.23 1313.41 1497.34C1304.16 1497.46 1295.21 1502.4 1289.94 1506.21C1274.67 1517.26 1270.1 1533.39 1273.47 1547.08C1278.68 1568.24 1307.29 1576.34 1334.61 1587.92C1362.67 1599.81 1379.8 1614.41 1384.67 1634.16C1390.3 1657.03 1386.92 1692.04 1360.21 1710.8C1347.43 1719.77 1332.55 1723.64 1312.56 1724.64L1311.59 1724.54C1294.56 1723.02 1280.96 1720.48 1268.35 1713.45C1238.95 1697.04 1238.4 1668.75 1237.95 1647.1L1266.87 1647.01C1267.08 1657.93 1268.23 1669.06 1274.59 1679.47C1278.92 1686.57 1287.22 1694.52 1299.97 1697.69C1307.47 1699.55 1316.65 1699.43 1324.24 1697.78C1337.75 1694.84 1344.88 1687.72 1349.95 1680.53C1355.94 1672.01 1357.27 1662.9 1356.77 1653.83C1354.32 1608.58 1279.56 1611.92 1254.14 1577.43C1237.44 1554.79 1238.82 1520.36 1256.36 1498.01C1265.82 1485.94 1278.6 1478.71 1300.42 1474.03Z"/><path transform="translate(-180 -321)" d="M332.764 1365.93L1227.88 1366.27C1228.08 1370.6 1229.84 1377.19 1226.79 1381.21C1225.48 1382.92 1223.42 1382.68 1220.5 1383.14L693.089 1383.12C573.012 1383.2 452.843 1383.89 332.776 1383.2C332.164 1377.43 332.516 1371.7 332.764 1365.93Z"/><path transform="translate(-180 -321)" d="M1801.85 1474.07C1803.55 1473.99 1805.26 1473.92 1806.97 1473.85C1824.81 1473.16 1840.5 1474.67 1854.14 1481.72C1885.65 1497.98 1884.87 1531.24 1885.64 1553.48L1858.28 1553.71C1857.61 1543.86 1857.16 1533.77 1853.76 1524.06C1850.68 1515.27 1844.5 1505.88 1830.31 1500.94C1823.84 1498.69 1816.56 1497.53 1809.04 1498.71C1795.7 1500.78 1785.5 1508.82 1779.37 1515.32C1753.52 1542.73 1754.86 1642.16 1770.69 1672.41C1775.7 1681.98 1785.12 1692.84 1801.81 1697.49C1808.89 1699.46 1816.74 1700.06 1824.14 1698.29C1838.73 1694.8 1845.87 1685.62 1851.05 1677.83C1856.73 1664.51 1858 1651.31 1858.56 1637.66L1888.14 1637.77C1887.67 1656.92 1886.96 1676.73 1874.4 1694.8C1865.8 1707.18 1851.04 1719.07 1828.51 1724.31C1816.97 1726.99 1804.76 1726.94 1793.47 1723.88C1769.8 1717.47 1755.02 1703.24 1746.88 1689.69C1721.44 1647.32 1720.43 1536.22 1756.33 1496.92C1766.9 1485.34 1779.85 1478.1 1801.85 1474.07Z"/><path transform="translate(-180 -321)" d="M337.384 1478.32C379.27 1477.46 421.776 1478.26 463.72 1478.32C464.173 1487.21 464.034 1496.13 464.154 1505.03C432.071 1505.55 399.758 1505.12 367.648 1505.13L367.712 1584.08C397.094 1584.04 426.477 1584.16 455.856 1584.43L455.795 1609.26C426.555 1610.09 396.632 1609.26 367.323 1609.17L367.436 1671.3L367.407 1694.04L466.739 1693.89L466.648 1719.39L338.138 1719.33C335.678 1688.34 338.05 1656.72 337.84 1625.65C337.507 1576.59 335.572 1527.35 337.384 1478.32Z"/><path transform="translate(-180 -321)" d="M671.636 1478.43L799.267 1478.69C799.939 1487.43 799.441 1496.29 799.453 1505.04L701.536 1504.98L701.308 1584.86L791.011 1584.87L791.016 1609.57C761.581 1610.14 731.927 1609.84 702.464 1609.95C701.431 1629.92 702.351 1650.07 702.323 1670.06L702.341 1694.01L802.329 1694.31C802.942 1702.58 802.451 1710.95 802.416 1719.23L671.769 1719.04C670.054 1672 671.755 1624.78 671.742 1577.73C671.732 1544.75 669.302 1511.35 671.636 1478.43Z"/><path transform="translate(-180 -321)" d="M1919.93 1478.68L2047.3 1478.55C2047.67 1487.23 2047.39 1495.95 2047.41 1504.63C2014.93 1504.85 1982.4 1504.62 1949.92 1504.57L1949.71 1584.51L2037.7 1584.49C2038.2 1592.68 2037.89 1600.94 2037.95 1609.14L1949.42 1609.31L1949.83 1673.16L1949.95 1694.34L2050.22 1694.16L2050.33 1719.26L1920.65 1719.09C1918.95 1704.06 1919.87 1688.7 1919.72 1673.64L1919.36 1584.05C1919.31 1551.04 1915.03 1511.04 1919.93 1478.68Z"/><path transform="translate(-180 -321)" d="M619.674 1478.8L648.709 1478.85C626.568 1558.96 600.045 1638.77 578.987 1718.96L548.621 1719.01C542.331 1702.62 538.771 1685.6 534.023 1669.03C516.948 1609.44 504.86 1548.71 482.124 1489.76C481.855 1485.7 480.738 1483.41 484.301 1479.81C491.42 1477.48 503.54 1478.68 511.663 1478.86C523.633 1523.92 535.117 1569.01 546.115 1614.15C551.75 1636.65 555.858 1660.05 563.806 1682.29C569.831 1667.89 588.962 1607.43 587.89 1594.16C603.867 1556.53 606.921 1516.85 619.674 1478.8Z"/><path transform="translate(-180 -321)" d="M1011.88 1478.62C1061.16 1478.5 1110.44 1478.53 1159.72 1478.71L1159.66 1505.09L1100.09 1505.33C1097.29 1565.37 1099.58 1625.74 1099.71 1685.81L1099.7 1718.92C1090.45 1719.13 1081.13 1718.97 1071.88 1718.94C1068.4 1647.8 1071.71 1576.24 1071.74 1505.06L1011.35 1504.96C1011.17 1496.16 1011.05 1487.41 1011.88 1478.62Z"/><path fill="#FDFDFC" fill-opacity="0.15686275" transform="translate(-180 -321)" d="M482.124 1489.76C481.789 1489.44 481.447 1489.13 481.118 1488.81C478.389 1486.14 476.851 1484.57 476.998 1481.39C479.754 1478.62 480.495 1477.83 486.071 1476.63C494.627 1474.79 506.134 1476.72 513.624 1479.15C518.875 1483.46 558.408 1644.09 564.131 1666.9C567.277 1656.87 582.364 1597.31 587.89 1594.16C588.962 1607.43 569.831 1667.89 563.806 1682.29C555.858 1660.05 551.75 1636.65 546.115 1614.15C535.117 1569.01 523.633 1523.92 511.663 1478.86C503.54 1478.68 491.42 1477.48 484.301 1479.81C480.738 1483.41 481.855 1485.7 482.124 1489.76Z"/></g></svg>